<?xml version="1.0" encoding="utf-8"?>
<!-- Generator: Adobe Illustrator 25.1.0, SVG Export Plug-In . SVG Version: 6.00 Build 0)  -->
<svg version="1.1" id="Layer_1" xmlns="http://www.w3.org/2000/svg" xmlns:xlink="http://www.w3.org/1999/xlink" x="0px" y="0px"
	 viewBox="0 0 700 700" style="enable-background:new 0 0 700 700;" xml:space="preserve">
<style type="text/css">
	.st0{fill-rule:evenodd;clip-rule:evenodd;fill:#CDF3CD;}
	.st1{fill:#134C13;}
	.st2{fill-rule:evenodd;clip-rule:evenodd;fill:#134C13;}
</style>
<circle class="st0" cx="350" cy="350" r="347"/>
<g>
	<path class="st1" d="M197.9,573.9c-1.4,0-2.8-0.3-4.1-1l-53.9-29.4c-2.7-1.5-4.4-4.4-4.4-7.5V121.6c0-4.7,3.8-8.5,8.5-8.5h53.9
		c4.7,0,8.5,3.8,8.5,8.5v443.7c0,3-1.6,5.8-4.2,7.3C200.9,573.5,199.4,573.9,197.9,573.9z M152.5,530.9l36.9,20.1V130.2h-36.9V530.9
		z"/>
	<path class="st1" d="M197.9,114.3H470c4.9,0,9.8,2.5,9.8,7.4v218.2l-17.2,63.7l2.5-12.3h-2.5V131.4H207.7V558
		c68.6,2.5,112.8-2.5,134.8,2.5c0,0,9.8,14.7,7.4,14.7c-53.9,2.5-149.5,0-152,0c-4.9,0-7.4-4.9-7.4-9.8V121.6
		C190.6,116.7,193,114.3,197.9,114.3L197.9,114.3z"/>
	<path class="st1" d="M435,601.1c-5.8,0-9.4-0.3-9.8-0.4l-0.9-0.1c-85.8-17.2-123.8-63.2-140.5-98.8c-17.5-37.2-16.1-70.3-15.8-74.1
		l0.1-0.6c1.7-15,20.2-26.2,56.6-34c26.7-5.8,61.5-9.3,99.2-10.1l-0.1-0.2l35,0l32.6-123.6c3.3-13.4,16.4-23.5,30.3-23.5h9.8
		c7.1,0,13.2,2.7,17.1,7.7c4.1,5.3,5.3,12.4,3.4,20l-31.9,123.2c25,3.6,46,8.3,61.1,13.5c21.8,7.5,32.4,16.7,32.4,28v3.5l-0.1,0.5
		c-10.7,94.8-61.3,135.7-101.8,153.3C479.9,599.1,449.9,601.1,435,601.1z M427.1,583.9c4.1,0.3,40.5,2.2,78.2-14.3
		c46.8-20.6,76.2-59.9,87.7-117.2c-9.3,4.6-21.6,8.7-37,12.2c-31.6,7.3-72.6,11.2-115.3,11.2c-44.7,0-86.6-4.1-118.1-11.6
		c-15.3-3.6-27.4-7.9-36.3-12.7c1.7,12,5.4,27.6,13.2,43.8C321.4,541.4,364.4,571.2,427.1,583.9z M285,428.5
		c0.8,3,9.3,11.5,41.5,19.2c30.2,7.2,70.8,11.1,114.2,11.1c41.4,0,81-3.8,111.5-10.8c32.2-7.4,42.5-15.6,44.3-18.9v-1
		c0,0-1.8-5.5-22.5-12.4c-15.8-5.3-38.6-9.9-65.7-13.5l-9.6-1.2l36.7-141.7c0.6-2.3,0.4-4.3-0.3-5.3c-0.8-1-2.7-1.2-3.7-1.2h-9.8
		c-6,0-12.4,4.9-13.8,10.7l-36,136.4h-0.3l-8,25.9l-16.3-5l6.4-20.8h-13c-43,0-82.9,3.5-112.5,9.9
		C295.3,416.8,286.1,425.3,285,428.5z"/>
	
		<rect x="483.7" y="403.6" transform="matrix(0.3162 -0.9487 0.9487 0.3162 -46.9661 759.1088)" class="st1" width="38.8" height="17"/>
	<path class="st1" d="M297,291.7c-9,0-19.7-1.9-28.2-9c-11.3-9.5-15.7-25.2-13.1-46.8l0.7-5.6l5.4-1.6c1.2-0.4,30.6-8.7,48.5,7.1
		c10.9,9.6,14.7,25.3,11.3,46.6l-0.8,5.3l-5.1,1.5C315,289.3,307,291.7,297,291.7z M272,243.9c-0.6,12.3,1.9,20.9,7.6,25.7
		c7,5.9,18.4,5.6,25.8,4.4c1.1-12.1-1-20.6-6.5-25.4C292.1,242.4,279.9,242.6,272,243.9z"/>
	<path class="st1" d="M362.9,291.7c-9.7,0-17.5-2.4-18-2.6l-5-1.6l-0.8-5.2c-3.5-21.7,0.3-37.6,11.3-47.1c17.3-15.1,45-6.9,46.2-6.5
		l5.3,1.6l0.7,5.5c2.6,22.1-1.8,38-13.1,47.3C381.4,289.9,371.4,291.7,362.9,291.7z M355.1,274c6.8,1.1,17.1,1.3,23.5-4
		c6.7-5.6,8-16.5,7.5-26.2c-7.3-1.1-18.2-1.4-24.6,4.3C355,253.7,354.3,264.4,355.1,274z"/>
	<path class="st1" d="M328.3,241.9l-4.5-2.5c-1-0.5-24.1-13.5-26.1-36.1c-1.3-15.1,7.1-30,24.9-44.2l4.7-3.8l5.1,3.2
		c1.1,0.7,26.5,16.7,26.9,40.4c0.2,14.6-8.7,28.1-26.7,40.1L328.3,241.9z M328.3,176.6c-9.7,8.9-14.3,17.4-13.6,25.2
		c0.7,9,8.2,16.1,13.1,19.8c9.7-7.5,14.6-14.9,14.5-22.3C342.1,190.2,334.3,181.6,328.3,176.6z"/>
	<path class="st1" d="M376.9,443.9c-2.4,0-4.9-1-6.5-3.1c-5.7-6.9-11.2-10.3-16.3-10c-6.6,0.3-12.5,6.8-14.2,9.3
		c-2.6,3.9-7.9,4.9-11.8,2.3c-3.9-2.6-4.9-7.9-2.3-11.8c1.1-1.6,11.1-16,27.4-16.8c10.8-0.6,21,4.8,30.4,16.1c3,3.6,2.5,9-1.1,12
		C380.7,443.3,378.8,443.9,376.9,443.9z"/>
	<path class="st1" d="M443.1,456.2c-2.3,0-4.6-0.9-6.3-2.8c-4.6-5-11.6-10.9-18.2-10.3c-7.3,0.7-12.2,8.8-12.3,8.8
		c-2.4,4-7.6,5.3-11.6,3c-4-2.4-5.4-7.5-3-11.6c0.9-1.6,9.4-15.5,25.1-17.1c11-1.2,22.1,4.1,32.7,15.7c3.2,3.5,2.9,8.8-0.5,12
		C447.2,455.5,445.1,456.2,443.1,456.2z"/>
	<path class="st2" d="M193,562.9V121.7h-49v414.3L193,562.9z"/>
	<path class="st2" d="M276.4,428.1c0,12.3,0,83.3,66.2,132.4c19.6,12.3,46.6,24.5,83.3,31.9c0,0,159.3,14.7,178.9-161.8
		c-4.9,19.6-76,36.8-164.2,36.8C349.9,467.3,276.4,450.1,276.4,428.1L276.4,428.1z"/>
</g>
</svg>
